HIERARCHY
ROOT Hips
{
	OFFSET 0.000000 0.000000 0.000000
	CHANNELS 6 Xposition Yposition Zposition Zrotation Yrotation Xrotation 
	JOINT LHipJoint
	{
		OFFSET 0.000000 0.000000 0.000000
		CHANNELS 3 Zrotation Yrotation Xrotation
		JOINT LeftUpLeg
		{
			OFFSET 1.363060 -1.794630 0.839290
			CHANNELS 3 Zrotation Yrotation Xrotation
			JOINT LeftLeg
			{
				OFFSET 2.448110 -6.726130 0.000000
				CHANNELS 3 Zrotation Yrotation Xrotation
				JOINT LeftFoot
				{
					OFFSET 2.562200 -7.039590 0.000000
					CHANNELS 3 Zrotation Yrotation Xrotation
					JOINT LeftToeBase
					{
						OFFSET 0.157640 -0.433110 2.322550
						CHANNELS 3 Zrotation Yrotation Xrotation
						End Site
						{
							OFFSET 0.000000 0.000000 0.000000
						}
					}
				}
			}
		}
	}
	JOINT RHipJoint
	{
		OFFSET 0.000000 0.000000 0.000000
		CHANNELS 3 Zrotation Yrotation Xrotation
		JOINT RightUpLeg
		{
			OFFSET -1.305520 -1.794630 0.839290
			CHANNELS 3 Zrotation Yrotation Xrotation
			JOINT RightLeg
			{
				OFFSET -2.542530 -6.985550 0.000000
				CHANNELS 3 Zrotation Yrotation Xrotation
				JOINT RightFoot
				{
					OFFSET -2.568260 -7.056230 0.000000
					CHANNELS 3 Zrotation Yrotation Xrotation
					JOINT RightToeBase
					{
						OFFSET -0.164730 -0.452590 2.363150
						CHANNELS 3 Zrotation Yrotation Xrotation
						End Site
						{
							OFFSET 0.000000 0.000000 0.000000
						}
					}
				}
			}
		}
	}
	JOINT LowerBack
	{
		OFFSET 0.000000 0.000000 0.000000
		CHANNELS 3 Zrotation Yrotation Xrotation
		JOINT Spine
		{
			OFFSET 0.028270 2.035590 -0.193380
			CHANNELS 3 Zrotation Yrotation Xrotation
			JOINT Spine1
			{
				OFFSET 0.056720 2.048850 -0.042750
				CHANNELS 3 Zrotation Yrotation Xrotation
				JOINT Neck
				{
					OFFSET 0.000000 0.000000 0.000000
					CHANNELS 3 Zrotation Yrotation Xrotation
					JOINT Neck1
					{
						OFFSET -0.054170 1.746240 0.172020
						CHANNELS 3 Zrotation Yrotation Xrotation
						JOINT Head
						{
							OFFSET 0.104070 1.761360 -0.123970
							CHANNELS 3 Zrotation Yrotation Xrotation
							End Site
							{
								OFFSET 0.000000 0.000000 0.000000
							}
						}
					}
				}
				JOINT LeftShoulder
				{
					OFFSET 0.000000 0.000000 0.000000
					CHANNELS 3 Zrotation Yrotation Xrotation
					JOINT LeftArm
					{
						OFFSET 3.362410 1.200890 -0.311210
						CHANNELS 3 Zrotation Yrotation Xrotation
						JOINT LeftForeArm
						{
							OFFSET 4.983000 -0.000000 -0.000000
							CHANNELS 3 Zrotation Yrotation Xrotation
							JOINT LeftHand
							{
								OFFSET 3.483560 -0.000000 -0.000000
								CHANNELS 3 Zrotation Yrotation Xrotation
								JOINT LeftFingerBase
								{
									OFFSET 0.000000 0.000000 0.000000
									CHANNELS 3 Zrotation Yrotation Xrotation
									JOINT LeftHandIndex1
									{
										OFFSET 0.715260 -0.000000 -0.000000
										CHANNELS 3 Zrotation Yrotation Xrotation
										End Site
										{
											OFFSET 0.000000 0.000000 0.000000
										}
									}
								}
								JOINT LThumb
								{
									OFFSET 0.000000 0.000000 0.000000
									CHANNELS 3 Zrotation Yrotation Xrotation
									End Site
									{
										OFFSET 0.000000 0.000000 0.000000
									}
								}
							}
						}
					}
				}
				JOINT RightShoulder
				{
					OFFSET 0.000000 0.000000 0.000000
					CHANNELS 3 Zrotation Yrotation Xrotation
					JOINT RightArm
					{
						OFFSET -3.136600 1.374050 -0.404650
						CHANNELS 3 Zrotation Yrotation Xrotation
						JOINT RightForeArm
						{
							OFFSET -5.241900 -0.000000 -0.000000
							CHANNELS 3 Zrotation Yrotation Xrotation
							JOINT RightHand
							{
								OFFSET -3.444170 -0.000000 -0.000000
								CHANNELS 3 Zrotation Yrotation Xrotation
								JOINT RightFingerBase
								{
									OFFSET 0.000000 0.000000 0.000000
									CHANNELS 3 Zrotation Yrotation Xrotation
									JOINT RightHandIndex1
									{
										OFFSET -0.622530 -0.000000 -0.000000
										CHANNELS 3 Zrotation Yrotation Xrotation
										End Site
										{
											OFFSET 0.000000 0.000000 0.000000
										}
									}
								}
								JOINT RThumb
								{
									OFFSET 0.000000 0.000000 0.000000
									CHANNELS 3 Zrotation Yrotation Xrotation
									End Site
									{
										OFFSET 0.000000 0.000000 0.000000
									}
								}
							}
						}
					}
				}
			}
		}
	}
}
MOTION
Frames: 10
Frame Time: 0.008333
4.761663 17.241498 3.077374 -68.228943 -81.782870 110.965753 -12.201680 -4.078554 -0.085414 -3.696109 -3.771651 -51.627220 -1.510264 -0.958105 12.806583 1.350806 5.846530 -4.537761 0.788100 0.000000 -34.031500 5.107991 -2.062506 12.953333 -5.329832 17.180482 -115.675838 7.547310 2.454948 1.032724 0.607962 -1.815135 10.415468 -2.873300 0.000000 -74.278100 12.954966 -2.637127 -6.966778 2.167034 -3.764359 -4.459035 -6.448127 -3.795078 0.932800 13.289488 -13.365064 -14.245760 -1.933052 -0.024363 -2.264946 0.000000 0.000000 0.000000 2.157291 9.440724 3.701491 -48.447298 4.205597 -35.682972 -0.889333 -65.359116 -0.103277 21.960014 -0.175376 -0.089041 -0.264464 0.284339 0.000000 0.000000 0.000000 0.000000 0.000000 0.000000 0.000000 10.866296 -9.963374 2.233005 57.205774 2.877569 -27.137806 0.420068 73.716075 -0.072028 -18.049072 10.607185 -1.775118 0.247253 -0.391365 0.000000 0.000000 0.000000 0.000000 0.000000 0.000000 0.000000 
4.764031 17.236168 3.076709 -70.389794 -81.666190 113.352906 -12.076808 -4.063450 -0.154700 -3.908696 -3.327284 -51.943489 -1.608859 -0.969127 12.757777 1.296404 5.539201 -4.561231 0.759800 -0.000001 -33.951700 5.168478 -2.101797 12.940134 -5.345769 17.572144 -115.390256 7.575353 2.302183 1.379117 0.989248 -0.486457 11.144708 -2.320700 0.000000 -74.432300 13.042149 -2.557735 -6.862978 2.176924 -3.689574 -4.435333 -6.477747 -3.720207 0.921640 12.989947 -13.157357 -14.163854 -1.987385 -0.030721 -2.242330 0.000000 0.000000 0.000000 1.889310 9.575777 3.698375 -48.470711 4.015738 -35.872475 -0.894960 -65.050427 -0.101555 22.100914 -0.174139 -0.088165 -0.261777 0.277868 0.000000 0.000000 0.000000 0.000000 0.000000 0.000000 0.000000 10.791226 -9.753350 2.202368 57.226867 3.092445 -27.044645 0.414957 73.475819 -0.073739 -18.225779 10.653887 -1.800640 0.247137 -0.393775 0.000000 0.000000 0.000000 0.000000 0.000000 0.000000 0.000000 
4.773793 17.243065 3.050533 -76.932370 -81.588951 119.603283 -11.542483 -3.877262 -0.606387 -4.893255 -2.227383 -51.257204 -1.858700 -1.017236 12.257589 1.225741 5.240953 -4.588146 0.721000 0.000001 -33.768101 5.387601 -1.884464 12.809621 -5.567606 18.377116 -114.236033 7.357055 2.243953 1.291964 1.376230 1.091819 11.763820 -1.594000 -0.000000 -74.774700 12.587488 -2.400071 -6.267251 2.030384 -3.480441 -4.291813 -6.588349 -3.511213 0.879312 12.966624 -12.981319 -14.046560 -2.070597 -0.039717 -2.213154 0.000000 0.000000 0.000000 1.955700 9.649146 3.678727 -48.397721 3.874322 -36.069605 -0.876781 -64.676947 -0.100232 22.185553 -0.183703 -0.089517 -0.260738 0.273208 0.000000 0.000000 0.000000 0.000000 0.000000 0.000000 0.000000 11.180487 -9.518637 2.190079 57.332048 3.409576 -26.930289 0.418948 73.165566 -0.074661 -18.361610 10.705221 -1.822559 0.245977 -0.393904 0.000000 0.000000 0.000000 0.000000 0.000000 0.000000 0.000000 
4.771604 17.241574 3.045551 -78.385365 -81.537020 121.108204 -11.419525 -3.788830 -0.619252 -5.174771 -1.937415 -51.273944 -1.948309 -1.044230 11.977899 1.175756 4.996077 -4.515948 0.708200 0.000000 -33.672800 5.377528 -1.801133 12.723955 -5.395106 18.497583 -112.902672 7.376024 2.373121 0.479355 1.702233 2.481888 12.024496 -0.952500 0.000000 -75.234499 12.491982 -2.354949 -6.214375 2.002729 -3.432299 -4.265207 -6.608788 -3.462683 0.901726 12.719644 -12.845138 -13.927846 -2.117364 -0.046203 -2.172541 0.000000 0.000000 0.000000 1.811813 9.717564 3.657140 -48.547329 3.711489 -36.077950 -0.884424 -64.405258 -0.098595 22.207232 -0.191880 -0.090330 -0.258362 0.268630 0.000000 0.000000 0.000000 0.000000 0.000000 0.000000 0.000000 11.159475 -9.401186 2.146667 57.355789 3.630290 -26.685548 0.422047 72.745443 -0.075396 -18.460771 10.742065 -1.838569 0.245312 -0.394310 0.000000 0.000000 0.000000 0.000000 0.000000 0.000000 0.000000 
4.767093 17.241615 3.038467 -79.341446 -81.561963 122.018597 -11.308624 -3.675745 -0.605551 -5.494020 -1.745539 -51.124112 -2.032267 -1.080090 11.600957 1.127722 4.781784 -4.404931 0.701000 0.000000 -33.568200 5.342549 -1.677623 12.595495 -5.127910 18.472630 -111.117056 7.366695 2.602146 -0.735320 1.950927 3.680328 12.065033 -0.393201 -0.000000 -75.812800 12.300346 -2.338208 -6.178484 1.955761 -3.407665 -4.237152 -6.623696 -3.437589 0.937215 12.505570 -12.743414 -13.794279 -2.159302 -0.052569 -2.124555 0.000000 0.000000 0.000000 1.725617 9.745409 3.629572 -48.742726 3.568589 -36.001037 -0.893750 -64.170055 -0.097048 22.159654 -0.202073 -0.091437 -0.256341 0.265140 0.000000 0.000000 0.000000 0.000000 0.000000 0.000000 0.000000 11.162948 -9.331598 2.098343 57.380188 3.831025 -26.380201 0.428175 72.275890 -0.075646 -18.519541 10.770063 -1.848974 0.244398 -0.393729 0.000000 0.000000 0.000000 0.000000 0.000000 0.000000 0.000000 
4.760310 17.242877 3.029343 -79.763811 -81.672768 122.292632 -11.213672 -3.542987 -0.567798 -5.850546 -1.649941 -50.809797 -2.110686 -1.123013 11.148354 1.080709 4.589820 -4.264874 0.697100 -0.000000 -33.457600 5.294036 -1.522311 12.421410 -4.767151 18.305922 -108.947449 7.314102 2.891916 -2.204958 2.103221 4.563730 11.932152 0.020000 -0.000000 -76.465700 12.014955 -2.351730 -6.152642 1.890174 -3.407684 -4.207540 -6.632725 -3.437182 0.982632 12.325144 -12.675178 -13.648827 -2.195684 -0.058680 -2.070513 0.000000 0.000000 0.000000 1.690146 9.730863 3.597408 -48.970929 3.448470 -35.846419 -0.904882 -63.979989 -0.095601 22.042183 -0.212880 -0.092537 -0.254710 0.262735 0.000000 0.000000 0.000000 0.000000 0.000000 0.000000 0.000000 11.185306 -9.308079 2.046461 57.407223 3.996037 -26.027457 0.436698 71.783761 -0.075436 -18.538885 10.787241 -1.853375 0.243265 -0.392235 0.000000 0.000000 0.000000 0.000000 0.000000 0.000000 0.000000 
4.751848 17.245559 3.017574 -79.676956 -81.878181 121.942723 -11.129111 -3.391866 -0.513936 -6.244809 -1.655904 -50.303619 -2.181759 -1.173198 10.617299 1.037533 4.437851 -4.094125 0.698200 0.000000 -33.347800 5.248407 -1.335600 12.191990 -4.310665 18.003209 -106.443660 7.205573 3.202145 -3.790402 2.153792 5.060171 11.683515 0.257001 -0.000000 -77.117800 11.623865 -2.398250 -6.114551 1.802956 -3.432585 -4.172352 -6.637421 -3.461801 1.034624 12.186045 -12.632451 -13.495488 -2.227294 -0.064484 -2.012461 0.000000 0.000000 0.000000 1.709088 9.686290 3.561788 -49.217709 3.334988 -35.626372 -0.917468 -63.830742 -0.094311 21.864565 -0.229910 -0.094933 -0.253522 0.261514 0.000000 0.000000 0.000000 0.000000 0.000000 0.000000 0.000000 11.234851 -9.322099 1.991314 57.441760 4.118840 -25.643865 0.446721 71.291387 -0.074818 -18.520679 10.793448 -1.852071 0.241832 -0.389874 0.000000 0.000000 0.000000 0.000000 0.000000 0.000000 0.000000 
4.741026 17.248925 3.003774 -79.028241 -82.163695 120.934320 -11.061217 -3.228865 -0.443604 -6.668680 -1.738437 -49.649825 -2.247816 -1.226240 10.049374 0.994767 4.298488 -3.910695 0.699600 0.000000 -33.240300 5.215732 -1.134309 11.920842 -3.762276 17.583399 -103.709937 7.046178 3.496511 -5.347861 2.103830 5.114402 11.374148 0.300600 0.000000 -77.703700 11.150660 -2.470393 -6.073921 1.699647 -3.476605 -4.135482 -6.636666 -3.505754 1.090717 12.077535 -12.617522 -13.337413 -2.252767 -0.069824 -1.951510 0.000000 0.000000 0.000000 1.762470 9.609926 3.523023 -49.471622 3.236254 -35.349525 -0.931444 -63.728610 -0.093120 21.634587 -0.249431 -0.097523 -0.252689 0.261203 0.000000 0.000000 0.000000 0.000000 0.000000 0.000000 0.000000 11.291975 -9.371809 1.934875 57.486673 4.181651 -25.243285 0.457863 70.821713 -0.073849 -18.466702 10.788088 -1.845063 0.240217 -0.386849 0.000000 0.000000 0.000000 0.000000 0.000000 0.000000 0.000000 
4.728009 17.252944 2.987698 -77.842034 -82.517960 119.298891 -11.004561 -3.055333 -0.361502 -7.115782 -1.889884 -48.854447 -2.308073 -1.281278 9.449592 0.954407 4.182007 -3.715267 0.702800 -0.000000 -33.142400 5.208558 -0.924601 11.612413 -3.132792 17.061370 -100.820740 6.840371 3.746496 -6.761839 1.961976 4.723750 11.052576 0.161100 -0.000001 -78.144601 10.598057 -2.562926 -6.023929 1.580439 -3.534041 -4.096399 -6.631700 -3.563391 1.148360 11.999149 -12.625234 -13.178715 -2.272522 -0.074651 -1.889464 0.000000 0.000000 0.000000 1.846410 9.513372 3.481457 -49.721314 3.142308 -35.029358 -0.946139 -63.667812 -0.092041 21.369473 -0.274146 -0.101109 -0.252188 0.261703 0.000000 0.000000 0.000000 0.000000 0.000000 0.000000 0.000000 11.355903 -9.448481 1.878038 57.547272 4.179643 -24.842068 0.469507 70.389816 -0.072597 -18.380648 10.772723 -1.833151 0.238415 -0.383302 0.000000 0.000000 0.000000 0.000000 0.000000 0.000000 0.000000 
4.712415 17.257177 2.970037 -76.090121 -82.913878 117.030206 -10.962234 -2.876052 -0.266676 -7.572802 -2.082613 -47.968951 -2.364071 -1.334485 8.852273 0.914240 4.068310 -3.520884 0.704600 -0.000000 -33.054600 5.230054 -0.722032 11.282860 -2.432915 16.458898 -97.865832 6.603438 3.935329 -7.941497 1.739501 3.910128 10.756784 -0.143500 0.000000 -78.349900 9.994202 -2.665150 -5.976902 1.451588 -3.596555 -4.059361 -6.621921 -3.626412 1.204940 11.937605 -12.654520 -13.021699 -2.285993 -0.078907 -1.827113 0.000000 0.000000 0.000000 1.940486 9.396236 3.437254 -49.958905 3.063583 -34.677214 -0.961009 -63.652851 -0.091029 21.086326 -0.301002 -0.104991 -0.251917 0.262664 0.000000 0.000000 0.000000 0.000000 0.000000 0.000000 0.000000 11.407667 -9.545533 1.822782 57.626057 4.102766 -24.454979 0.481393 70.007739 -0.071135 -18.265704 10.749522 -1.816936 0.236529 -0.379471 0.000000 0.000000 0.000000 0.000000 0.000000 0.000000 0.000000 
